<svg xmlns="http://www.w3.org/2000/svg" width="22.937" height="14.543" viewBox="0 0 22.937 14.543">
  <g id="Group_27" data-name="Group 27" transform="translate(-949.031 -4742.229)">
    <g id="down-filled-triangular-arrow" transform="translate(935.982 4756.771) rotate(-90)">
      <path id="Path_34" data-name="Path 34" d="M13.841,28.017H.7a.7.7,0,0,0-.493,1.2l6.57,6.57a.7.7,0,0,0,.986,0l6.57-6.57A.7.7,0,0,0,13.841,28.017Z" transform="translate(0)" fill="#fff"/>
    </g>
    <g id="down-filled-triangular-arrow-2" data-name="down-filled-triangular-arrow" transform="translate(985.018 4742.229) rotate(90)">
      <path id="Path_34-2" data-name="Path 34" d="M13.841,28.017H.7a.7.7,0,0,0-.493,1.2l6.57,6.57a.7.7,0,0,0,.986,0l6.57-6.57A.7.7,0,0,0,13.841,28.017Z" transform="translate(0)" fill="#fff"/>
    </g>
  </g>
</svg>
