<svg xmlns="http://www.w3.org/2000/svg" width="17.464" height="26.691" viewBox="0 0 17.464 26.691">
  <path id="showcase-arrow-right" d="M35.759,13.576l-.019-.051a1.238,1.238,0,0,0-.7-.7c-.123-.048-.253-.075-.381-.115-.267-.333-.822-.982-1.406-1.665-.664-.774-1.35-1.577-1.6-1.894-.237-.243-.448-.438-.654-.627s-.411-.384-.654-.627l-.59-.534c-1.035-.96-2.1-1.867-3.129-2.75C26,4.084,25.374,3.551,24.76,3A13.835,13.835,0,0,0,19.6.016L19.55,0,19.5.032a1.344,1.344,0,0,0-.408.934h0a6.09,6.09,0,0,0,.157,1.745v.037l.029.024a3.788,3.788,0,0,0,1.126.558,4.492,4.492,0,0,1,1.016.48c.5.379,1.016.694,1.507,1,.248.149.494.3.728.454.248.211.5.43.744.651.494.435,1.006.888,1.5,1.259.28.24.56.459.83.672A15.7,15.7,0,0,1,28.1,9.012c.395.4,1.3,1.278,2.1,2.051.638.616,1.238,1.2,1.446,1.411.331.357.662.736.992,1.115l-.019.029a5.5,5.5,0,0,1-.688.984c-.464.446-.875.915-1.27,1.369-.2.227-.4.456-.595.672-.267.221-.534.44-.8.659-.486.411-1,.838-1.449,1.267-.267.237-.534.478-.8.712a16.745,16.745,0,0,1-1.393,1.182c-.462.323-1.483,1.086-2.385,1.758-.715.534-1.334.992-1.569,1.16-.974.64-2.041,1.275-3,1.849l-.112.088c-.128.093-.267.192-.267.347a.44.44,0,0,0,.229.422,2.209,2.209,0,0,0,.611.336,3.468,3.468,0,0,0,1.286.267h.045c.216-.093,1.094-.622,2.027-1.182.846-.512,1.723-1.038,2.059-1.211.267-.192.5-.371.718-.534s.446-.347.72-.534l.616-.5c1.1-.864,2.172-1.769,3.2-2.644.63-.534,1.281-1.086,1.929-1.619a15.54,15.54,0,0,0,2.79-2.934h0c.117-.032.221-.08.309-.368V15.11a16.273,16.273,0,0,0,.886-1.449Z" transform="translate(-18.295)" fill="#fff"/>
</svg>
